<?xml version="1.0" encoding="utf-8"?>
<!-- Generator: Adobe Illustrator 15.0.0, SVG Export Plug-In . SVG Version: 6.00 Build 0)  -->
<!DOCTYPE svg PUBLIC "-//W3C//DTD SVG 1.1//EN" "http://www.w3.org/Graphics/SVG/1.1/DTD/svg11.dtd">
<svg version="1.1" id="Layer_1" xmlns="http://www.w3.org/2000/svg" xmlns:xlink="http://www.w3.org/1999/xlink" x="0px" y="0px"
	 width="420px" height="214px" viewBox="0 0 420 214" enable-background="new 0 0 420 214" xml:space="preserve">
<path fill="none" stroke="#231F20" stroke-width="3.1172" stroke-linecap="round" stroke-miterlimit="10" stroke-dasharray="5.8448,8.5723" d="
	M126.42,216.301"/>
<path opacity="0.25" fill="none" stroke="#231F20" stroke-width="3.1172" stroke-linecap="round" stroke-miterlimit="10" stroke-dasharray="5.8448,8.5723" d="
	M184.585,90.441"/>
<linearGradient id="SVGID_1_" gradientUnits="userSpaceOnUse" x1="1.7778" y1="109.834" x2="159.3481" y2="109.834">
	<stop  offset="0" style="stop-color:#827E77"/>
	<stop  offset="1" style="stop-color:#373C39"/>
</linearGradient>
<polygon fill="url(#SVGID_1_)" points="1.778,212.496 67.683,212.496 159.348,7.173 93.443,7.173 "/>
<linearGradient id="SVGID_2_" gradientUnits="userSpaceOnUse" x1="55.9121" y1="114.0215" x2="124.6383" y2="102.3509">
	<stop  offset="0" style="stop-color:#8A8580;stop-opacity:0"/>
	<stop  offset="1" style="stop-color:#373C39"/>
</linearGradient>
<polygon fill="url(#SVGID_2_)" points="1.778,212.496 67.683,212.496 159.348,7.173 93.443,7.173 "/>
<polygon opacity="0.27" fill="#272F2B" points="93.368,7.573 116.657,102.923 128.125,77.262 106.278,7.173 93.547,7.173 "/>
<path opacity="0.25" fill="#272F2B" d="M279.375,76.954c-0.232-0.104-0.475-0.153-0.711-0.153c-0.668,0-1.305,0.385-1.596,1.034
	l-1.385,3.096c-0.395,0.88,0,1.913,0.881,2.307c0.23,0.103,0.475,0.152,0.713,0.152c0.666,0,1.303-0.384,1.594-1.033l1.385-3.097
	C280.648,78.38,280.254,77.348,279.375,76.954z M264.83,109.467c-0.23-0.103-0.473-0.152-0.711-0.152
	c-0.67,0-1.307,0.385-1.598,1.034l-1.383,3.097c-0.395,0.881,0,1.912,0.879,2.307c0.232,0.103,0.475,0.152,0.713,0.152
	c0.668,0,1.305-0.385,1.594-1.033l1.387-3.097C266.104,110.894,265.711,109.861,264.83,109.467z M269.678,98.63
	c-0.232-0.104-0.475-0.153-0.711-0.153c-0.668,0-1.305,0.385-1.596,1.033l-1.385,3.097c-0.395,0.879,0,1.912,0.881,2.306
	c0.23,0.104,0.475,0.152,0.713,0.152c0.666,0,1.303-0.384,1.594-1.033l1.385-3.097C270.951,100.056,270.557,99.023,269.678,98.63z
	 M284.225,66.116c-0.232-0.104-0.475-0.153-0.713-0.153c-0.668,0-1.305,0.385-1.596,1.033l-1.383,3.097
	c-0.395,0.88,0,1.913,0.879,2.306c0.232,0.104,0.475,0.153,0.713,0.153c0.668,0,1.305-0.385,1.594-1.033l1.387-3.097
	C285.498,67.542,285.104,66.51,284.225,66.116z M274.527,87.792c-0.232-0.104-0.475-0.153-0.711-0.153
	c-0.67,0-1.307,0.385-1.598,1.034l-1.383,3.097c-0.395,0.879,0,1.912,0.879,2.306c0.232,0.103,0.475,0.152,0.713,0.152
	c0.668,0,1.305-0.384,1.594-1.033l1.387-3.097C275.801,89.218,275.406,88.186,274.527,87.792z M303.619,22.764
	c-0.232-0.104-0.475-0.152-0.713-0.152c-0.668,0-1.305,0.385-1.596,1.033l-1.383,3.096c-0.395,0.881,0,1.913,0.879,2.307
	c0.232,0.104,0.475,0.153,0.713,0.153c0.668,0,1.305-0.385,1.594-1.033l1.385-3.097C304.893,24.191,304.498,23.158,303.619,22.764z
	 M298.77,33.602c-0.232-0.104-0.475-0.152-0.713-0.152c-0.666,0-1.303,0.384-1.594,1.033l-1.385,3.097
	c-0.395,0.88,0,1.913,0.881,2.306c0.23,0.104,0.475,0.153,0.713,0.153c0.666,0,1.303-0.385,1.594-1.034l1.383-3.096
	C300.043,35.029,299.648,33.996,298.77,33.602z M293.922,44.44c-0.232-0.104-0.475-0.153-0.713-0.153
	c-0.668,0-1.305,0.385-1.596,1.034l-1.383,3.096c-0.395,0.88,0,1.913,0.879,2.306c0.232,0.104,0.475,0.153,0.713,0.153
	c0.668,0,1.305-0.385,1.594-1.034l1.385-3.096C295.195,45.867,294.801,44.834,293.922,44.44z M289.072,55.278
	c-0.232-0.104-0.475-0.153-0.713-0.153c-0.666,0-1.303,0.385-1.594,1.033l-1.385,3.097c-0.395,0.88,0,1.913,0.881,2.307
	c0.23,0.103,0.475,0.152,0.713,0.152c0.666,0,1.303-0.385,1.594-1.033l1.385-3.097C290.346,56.704,289.951,55.672,289.072,55.278z
	 M245.436,152.821c-0.23-0.104-0.473-0.154-0.711-0.154c-0.668,0-1.305,0.384-1.596,1.033l-1.385,3.097
	c-0.395,0.881,0,1.912,0.881,2.307c0.23,0.104,0.473,0.152,0.711,0.152c0.666,0,1.305-0.385,1.594-1.033l1.387-3.097
	C246.709,154.247,246.316,153.214,245.436,152.821z M230.889,185.333c-0.23-0.104-0.473-0.151-0.711-0.151
	c-0.666,0-1.303,0.384-1.594,1.033l-1.387,3.096c-0.395,0.88,0.002,1.913,0.883,2.306c0.229,0.104,0.471,0.154,0.711,0.154
	c0.666,0,1.303-0.385,1.594-1.033l1.385-3.097C232.164,186.76,231.77,185.728,230.889,185.333z M226.041,196.172
	c-0.23-0.104-0.473-0.153-0.711-0.153c-0.668,0-1.305,0.384-1.596,1.033l-1.385,3.096c-0.395,0.882,0,1.913,0.881,2.308
	c0.23,0.104,0.473,0.152,0.711,0.152c0.666,0,1.305-0.385,1.594-1.034l1.387-3.096C227.316,197.599,226.922,196.564,226.041,196.172
	z M235.738,174.494c-0.23-0.102-0.473-0.151-0.711-0.151c-0.668,0-1.305,0.384-1.596,1.033l-1.385,3.096
	c-0.395,0.882,0,1.913,0.881,2.308c0.23,0.104,0.473,0.152,0.711,0.152c0.666,0,1.305-0.385,1.594-1.033l1.387-3.097
	C237.012,175.923,236.619,174.889,235.738,174.494z M221.191,207.009c-0.23-0.104-0.473-0.151-0.711-0.151
	c-0.666,0-1.303,0.384-1.594,1.033l-1.02,2.276c-0.395,0.882,0,1.913,0.881,2.308c0.23,0.104,0.473,0.152,0.711,0.152
	c0.668,0,1.305-0.385,1.594-1.033l1.02-2.277C222.467,208.436,222.072,207.403,221.191,207.009z M250.283,141.982
	c-0.232-0.104-0.473-0.152-0.711-0.152c-0.668,0-1.303,0.385-1.594,1.033l-1.387,3.097c-0.395,0.879,0,1.912,0.883,2.305
	c0.229,0.104,0.473,0.154,0.711,0.154c0.666,0,1.303-0.387,1.594-1.033l1.385-3.099
	C251.557,143.408,251.164,142.375,250.283,141.982z M255.133,131.144c-0.23-0.104-0.473-0.152-0.711-0.152
	c-0.668,0-1.305,0.385-1.596,1.033l-1.385,3.097c-0.395,0.881,0,1.912,0.881,2.307c0.23,0.104,0.473,0.152,0.711,0.152
	c0.666,0,1.305-0.385,1.594-1.033l1.387-3.097C256.406,132.571,256.012,131.538,255.133,131.144z M308.467,11.927
	c-0.232-0.104-0.475-0.153-0.713-0.153c-0.666,0-1.303,0.385-1.594,1.033l-1.387,3.096c-0.393,0.88,0.002,1.913,0.883,2.307
	c0.23,0.104,0.473,0.153,0.711,0.153c0.668,0,1.305-0.384,1.596-1.033l1.383-3.097C309.74,13.353,309.346,12.32,308.467,11.927z
	 M240.586,163.658c-0.23-0.104-0.473-0.152-0.711-0.152c-0.666,0-1.303,0.384-1.594,1.033l-1.387,3.096
	c-0.395,0.88,0,1.913,0.883,2.306c0.229,0.104,0.473,0.154,0.711,0.154c0.666,0,1.303-0.387,1.594-1.033l1.385-3.097
	C241.859,165.084,241.467,164.053,240.586,163.658z M259.98,120.307c-0.23-0.104-0.473-0.152-0.711-0.152
	c-0.668,0-1.305,0.385-1.594,1.031l-1.387,3.097c-0.395,0.881,0,1.914,0.879,2.307c0.232,0.104,0.477,0.152,0.715,0.152
	c0.666,0,1.303-0.385,1.594-1.031l1.385-3.099C261.254,121.732,260.859,120.701,259.98,120.307z M378.461,145.886l-1.377-3.101
	c-0.291-0.648-0.928-1.035-1.598-1.035c-0.236,0-0.479,0.048-0.709,0.15c-0.881,0.393-1.277,1.424-0.885,2.305l1.379,3.099
	c0.289,0.65,0.928,1.037,1.596,1.037c0.238,0,0.479-0.048,0.709-0.152C378.457,147.798,378.854,146.767,378.461,145.886z
	 M388.111,167.581l-1.377-3.099c-0.291-0.65-0.93-1.037-1.596-1.037c-0.238,0-0.479,0.048-0.709,0.152
	c-0.881,0.391-1.277,1.422-0.885,2.303l1.377,3.101c0.291,0.649,0.928,1.035,1.596,1.035c0.236,0,0.479-0.048,0.709-0.149
	C388.107,169.494,388.504,168.462,388.111,167.581z M363.984,113.341l-1.377-3.101c-0.291-0.651-0.93-1.035-1.596-1.035
	c-0.238,0-0.479,0.048-0.709,0.149c-0.881,0.393-1.277,1.425-0.887,2.306l1.379,3.099c0.291,0.651,0.928,1.037,1.596,1.037
	c0.236,0,0.479-0.048,0.709-0.151C363.98,115.254,364.377,114.222,363.984,113.341z M368.811,124.188l-1.379-3.098
	c-0.289-0.651-0.928-1.038-1.596-1.038c-0.236,0-0.477,0.051-0.709,0.152c-0.879,0.391-1.275,1.424-0.885,2.304l1.379,3.1
	c0.289,0.651,0.928,1.038,1.596,1.038c0.236,0,0.477-0.051,0.707-0.152C368.807,126.103,369.203,125.069,368.811,124.188z
	 M373.637,135.036l-1.379-3.098c-0.289-0.651-0.928-1.037-1.596-1.037c-0.238,0-0.479,0.048-0.709,0.149
	c-0.881,0.393-1.277,1.424-0.885,2.306l1.377,3.1c0.289,0.649,0.928,1.036,1.598,1.036c0.236,0,0.479-0.048,0.709-0.15
	C373.633,136.949,374.027,135.918,373.637,135.036z M383.285,156.734l-1.377-3.101c-0.289-0.65-0.928-1.037-1.596-1.037
	c-0.236,0-0.479,0.05-0.707,0.152c-0.883,0.391-1.279,1.424-0.889,2.303l1.381,3.101c0.287,0.65,0.928,1.037,1.596,1.037
	c0.236,0,0.477-0.05,0.707-0.152C383.281,158.646,383.678,157.613,383.285,156.734z M406.963,209.957l-0.928-2.083
	c-0.289-0.648-0.928-1.035-1.596-1.035c-0.236,0-0.477,0.048-0.707,0.15c-0.883,0.393-1.279,1.424-0.889,2.305l0.928,2.081
	c0.289,0.651,0.928,1.037,1.596,1.037c0.236,0,0.477-0.048,0.707-0.149C406.955,211.87,407.354,210.839,406.963,209.957z
	 M402.588,200.126l-1.377-3.099c-0.291-0.65-0.928-1.037-1.598-1.037c-0.236,0-0.479,0.048-0.709,0.152
	c-0.881,0.391-1.277,1.422-0.885,2.303l1.379,3.101c0.289,0.65,0.926,1.037,1.596,1.037c0.236,0,0.479-0.05,0.709-0.152
	C402.584,202.038,402.98,201.007,402.588,200.126z M392.938,178.43l-1.379-3.1c-0.287-0.649-0.928-1.036-1.596-1.036
	c-0.236,0-0.479,0.049-0.709,0.15c-0.879,0.393-1.275,1.424-0.885,2.306l1.377,3.1c0.291,0.649,0.93,1.036,1.596,1.036
	c0.238,0,0.48-0.049,0.709-0.15C392.934,180.343,393.33,179.312,392.938,178.43z M397.764,189.279l-1.381-3.101
	c-0.287-0.651-0.926-1.037-1.596-1.037c-0.236,0-0.477,0.05-0.707,0.151c-0.881,0.393-1.277,1.425-0.885,2.306l1.377,3.099
	c0.289,0.65,0.928,1.037,1.598,1.037c0.236,0,0.477-0.05,0.709-0.152C397.76,191.191,398.154,190.158,397.764,189.279z
	 M359.16,102.492l-1.379-3.1c-0.289-0.65-0.928-1.036-1.594-1.036c-0.24,0-0.48,0.048-0.709,0.15
	c-0.883,0.392-1.279,1.424-0.889,2.305l1.381,3.1c0.287,0.65,0.928,1.037,1.596,1.037c0.236,0,0.477-0.048,0.707-0.151
	C359.154,104.404,359.551,103.373,359.16,102.492z M325.383,26.555l-1.379-3.1c-0.289-0.65-0.926-1.037-1.596-1.037
	c-0.238,0-0.479,0.049-0.709,0.151c-0.881,0.392-1.277,1.423-0.885,2.304l1.377,3.1c0.291,0.65,0.928,1.037,1.598,1.037
	c0.236,0,0.479-0.049,0.709-0.151C325.379,28.467,325.775,27.435,325.383,26.555z M330.207,37.402l-1.379-3.099
	c-0.289-0.65-0.926-1.037-1.596-1.037c-0.236,0-0.479,0.049-0.709,0.151c-0.879,0.392-1.275,1.423-0.885,2.304l1.381,3.1
	c0.287,0.65,0.926,1.037,1.594,1.037c0.238,0,0.479-0.049,0.709-0.151C330.203,39.315,330.6,38.283,330.207,37.402z M335.033,48.251
	l-1.379-3.1c-0.289-0.65-0.928-1.036-1.596-1.036c-0.238,0-0.479,0.048-0.709,0.15c-0.881,0.393-1.277,1.424-0.887,2.305l1.381,3.1
	c0.287,0.65,0.926,1.036,1.596,1.036c0.236,0,0.477-0.048,0.709-0.151C335.027,50.164,335.426,49.131,335.033,48.251z
	 M320.559,15.706l-1.381-3.1c-0.289-0.65-0.928-1.037-1.596-1.037c-0.236,0-0.477,0.049-0.707,0.151
	c-0.881,0.392-1.277,1.423-0.887,2.304l1.379,3.099c0.289,0.65,0.928,1.037,1.596,1.037c0.236,0,0.477-0.049,0.709-0.151
	C320.551,17.619,320.949,16.587,320.559,15.706z M344.686,69.947l-1.381-3.1c-0.289-0.65-0.928-1.037-1.596-1.037
	c-0.236,0-0.477,0.049-0.709,0.151c-0.879,0.392-1.275,1.424-0.885,2.305l1.379,3.099c0.289,0.65,0.928,1.037,1.596,1.037
	c0.236,0,0.477-0.048,0.707-0.151C344.68,71.86,345.076,70.828,344.686,69.947z M349.51,80.795l-1.379-3.099
	c-0.289-0.65-0.928-1.037-1.596-1.037c-0.238,0-0.479,0.048-0.709,0.151c-0.881,0.392-1.277,1.423-0.885,2.304l1.377,3.1
	c0.289,0.65,0.928,1.037,1.598,1.037c0.236,0,0.479-0.049,0.709-0.151C349.506,82.708,349.902,81.677,349.51,80.795z
	 M339.857,59.099L338.48,56c-0.291-0.65-0.928-1.037-1.596-1.037c-0.238,0-0.479,0.049-0.709,0.151
	c-0.883,0.392-1.279,1.423-0.887,2.304l1.379,3.1c0.291,0.65,0.928,1.037,1.596,1.037c0.238,0,0.479-0.049,0.709-0.151
	C339.854,61.011,340.25,59.98,339.857,59.099z M354.334,91.644l-1.377-3.099c-0.291-0.65-0.928-1.037-1.598-1.037
	c-0.236,0-0.479,0.049-0.709,0.151c-0.881,0.392-1.275,1.423-0.885,2.304l1.381,3.1c0.287,0.65,0.926,1.037,1.594,1.037
	c0.238,0,0.479-0.049,0.709-0.151C354.33,93.556,354.727,92.524,354.334,91.644z M315.73,4.858l-1.377-3.1
	c-0.291-0.65-0.928-1.037-1.596-1.037c-0.236,0-0.479,0.048-0.709,0.151c-0.334,0.148-0.598,0.389-0.775,0.678
	c-0.107,0.124-0.195,0.263-0.266,0.418l-1.385,3.097c-0.393,0.88,0.002,1.912,0.881,2.306c0.232,0.104,0.475,0.153,0.713,0.153
	c0.621,0,1.215-0.333,1.527-0.903c0.334,0.439,0.854,0.691,1.393,0.691c0.238,0,0.479-0.048,0.709-0.15
	C315.727,6.77,316.123,5.739,315.73,4.858z"/>
<path fill="#8A8582" d="M215.514,11.927c-0.881-0.394-1.912,0-2.307,0.88l-1.383,3.096c-0.395,0.88,0,1.913,0.879,2.307
	c0.881,0.394,1.912,0,2.307-0.88l1.385-3.096C216.787,13.353,216.393,12.32,215.514,11.927z M162.18,131.144
	c-0.879-0.393-1.913,0.002-2.306,0.881l-1.385,3.097c-0.394,0.881,0,1.912,0.881,2.307c0.88,0.393,1.913,0,2.306-0.881l1.385-3.097
	C163.455,132.569,163.061,131.538,162.18,131.144z M152.483,152.821c-0.879-0.395-1.912,0-2.306,0.879l-1.385,3.097
	c-0.394,0.881,0,1.912,0.88,2.307c0.88,0.393,1.913,0,2.306-0.881l1.386-3.097C153.758,154.247,153.363,153.214,152.483,152.821z
	 M167.029,120.307c-0.88-0.395-1.912,0-2.306,0.879l-1.385,3.099c-0.394,0.879,0,1.912,0.881,2.305c0.879,0.395,1.913,0,2.306-0.879
	l1.385-3.099C168.303,121.732,167.909,120.701,167.029,120.307z M137.938,185.333c-0.879-0.395-1.913,0-2.306,0.882l-1.385,3.096
	c-0.394,0.88,0.001,1.913,0.881,2.306c0.88,0.395,1.913,0,2.306-0.879l1.385-3.097C139.212,186.76,138.818,185.728,137.938,185.333z
	 M128.24,207.009c-0.59-0.265-1.244-0.168-1.733,0.187c-0.49-0.366-1.154-0.472-1.753-0.206c-0.88,0.393-1.277,1.424-0.886,2.305
	l0.926,2.081c0.04,0.09,0.091,0.172,0.144,0.252c0.172,0.362,0.462,0.671,0.856,0.848c0.88,0.395,1.913,0,2.307-0.881l1.019-2.277
	C129.515,208.436,129.121,207.403,128.24,207.009z M133.089,196.172c-0.879-0.395-1.912,0-2.306,0.88l-1.385,3.096
	c-0.394,0.882,0,1.913,0.88,2.308c0.879,0.393,1.913,0,2.306-0.882l1.385-3.096C134.363,197.599,133.969,196.564,133.089,196.172z
	 M142.786,174.494c-0.879-0.392-1.913,0.003-2.306,0.882l-1.385,3.096c-0.394,0.882,0,1.913,0.881,2.308
	c0.879,0.395,1.912,0,2.306-0.881l1.385-3.097C144.061,175.923,143.667,174.889,142.786,174.494z M147.635,163.658
	c-0.88-0.395-1.913,0-2.306,0.881l-1.385,3.096c-0.394,0.88,0,1.913,0.88,2.306c0.88,0.395,1.913,0,2.307-0.879l1.385-3.099
	C148.909,165.084,148.515,164.053,147.635,163.658z M205.817,33.603c-0.879-0.394-1.912,0-2.307,0.88l-1.385,3.097
	c-0.394,0.88,0,1.913,0.881,2.306c0.879,0.394,1.912,0,2.306-0.881l1.385-3.096C207.092,35.029,206.698,33.996,205.817,33.603z
	 M200.968,44.44c-0.879-0.394-1.911,0.001-2.306,0.881l-1.385,3.097c-0.394,0.88,0.001,1.913,0.88,2.306
	c0.881,0.394,1.913,0,2.307-0.881l1.386-3.096C202.243,45.867,201.849,44.834,200.968,44.44z M196.12,55.278
	c-0.879-0.394-1.912,0-2.307,0.88l-1.385,3.097c-0.394,0.88,0.001,1.913,0.881,2.307c0.879,0.394,1.912-0.001,2.307-0.881
	l1.385-3.096C197.395,56.705,197.001,55.672,196.12,55.278z M210.665,22.764c-0.879-0.394-1.912,0-2.305,0.881l-1.385,3.097
	c-0.395,0.88,0,1.913,0.879,2.306c0.881,0.394,1.914,0,2.307-0.88l1.386-3.097C211.939,24.191,211.545,23.158,210.665,22.764z
	 M186.423,76.954c-0.879-0.394-1.912,0-2.307,0.881l-1.385,3.096c-0.394,0.88,0.001,1.913,0.881,2.307
	c0.88,0.394,1.912-0.001,2.307-0.881l1.385-3.097C187.697,78.38,187.304,77.348,186.423,76.954z M176.726,98.63
	c-0.879-0.394-1.913,0-2.306,0.88l-1.385,3.097c-0.394,0.879,0,1.912,0.881,2.306c0.879,0.394,1.912,0,2.306-0.881l1.385-3.097
	C178.001,100.056,177.606,99.024,176.726,98.63z M191.272,66.116c-0.881-0.394-1.914,0-2.307,0.881l-1.386,3.096
	c-0.394,0.88,0.001,1.913,0.881,2.306c0.88,0.394,1.912,0,2.307-0.88l1.385-3.097C192.546,67.542,192.151,66.51,191.272,66.116z
	 M181.575,87.792c-0.881-0.394-1.913,0-2.307,0.881l-1.385,3.096c-0.395,0.88,0,1.913,0.88,2.307c0.88,0.394,1.913,0,2.307-0.881
	l1.385-3.097C182.849,89.218,182.455,88.186,181.575,87.792z M171.877,109.467c-0.88-0.393-1.913,0.002-2.306,0.882l-1.385,3.097
	c-0.394,0.881,0,1.912,0.881,2.307c0.879,0.393,1.912-0.002,2.306-0.881l1.385-3.097
	C173.152,110.894,172.758,109.861,171.877,109.467z M157.332,141.982c-0.88-0.395-1.913,0-2.307,0.881l-1.385,3.097
	c-0.394,0.879,0.001,1.912,0.881,2.305c0.88,0.395,1.913,0,2.306-0.879l1.385-3.099
	C158.606,143.408,158.212,142.375,157.332,141.982z M123.612,200.126l-1.379-3.099c-0.392-0.881-1.423-1.277-2.304-0.887
	c-0.881,0.393-1.277,1.424-0.885,2.305l1.378,3.101c0.392,0.881,1.423,1.277,2.305,0.885
	C123.607,202.038,124.004,201.007,123.612,200.126z M65.708,69.947l-1.378-3.1c-0.392-0.881-1.424-1.277-2.305-0.886
	c-0.881,0.392-1.277,1.423-0.885,2.305l1.378,3.099c0.392,0.881,1.423,1.278,2.304,0.886S66.1,70.828,65.708,69.947z M70.533,80.795
	l-1.379-3.099c-0.392-0.881-1.423-1.278-2.304-0.886s-1.277,1.423-0.885,2.304l1.378,3.1c0.392,0.881,1.424,1.277,2.304,0.886
	C70.528,82.708,70.925,81.677,70.533,80.795z M56.057,48.251l-1.379-3.1c-0.392-0.88-1.423-1.277-2.304-0.885
	c-0.881,0.392-1.277,1.424-0.886,2.304l1.379,3.1c0.392,0.88,1.423,1.277,2.304,0.885C56.053,50.164,56.449,49.131,56.057,48.251z
	 M46.406,26.554l-1.378-3.1c-0.392-0.881-1.424-1.277-2.305-0.885c-0.88,0.392-1.277,1.423-0.886,2.304l1.379,3.1
	c0.392,0.881,1.423,1.278,2.305,0.886C46.402,28.467,46.798,27.435,46.406,26.554z M41.581,15.706l-1.379-3.1
	c-0.392-0.881-1.424-1.277-2.305-0.886c-0.88,0.392-1.277,1.424-0.885,2.305l1.378,3.099c0.392,0.881,1.424,1.278,2.305,0.886
	C41.576,17.618,41.973,16.587,41.581,15.706z M51.232,37.402l-1.379-3.099c-0.392-0.881-1.423-1.278-2.304-0.886
	c-0.881,0.392-1.278,1.423-0.886,2.304l1.379,3.1c0.392,0.881,1.423,1.277,2.304,0.886C51.228,39.315,51.624,38.283,51.232,37.402z
	 M36.755,4.858l-1.378-3.1c-0.392-0.881-1.424-1.277-2.305-0.885c-0.881,0.392-1.277,1.423-0.886,2.304l1.379,3.1
	c0.392,0.881,1.423,1.277,2.304,0.885C36.751,6.771,37.147,5.739,36.755,4.858z M75.358,91.644l-1.379-3.099
	c-0.392-0.881-1.423-1.278-2.304-0.886c-0.88,0.392-1.277,1.423-0.885,2.304l1.378,3.1c0.392,0.881,1.423,1.277,2.305,0.885
	C75.354,93.556,75.75,92.524,75.358,91.644z M60.882,59.099L59.504,56c-0.392-0.881-1.424-1.277-2.305-0.886
	c-0.881,0.392-1.277,1.424-0.885,2.305l1.378,3.1c0.392,0.881,1.424,1.277,2.305,0.885C60.877,61.011,61.274,59.98,60.882,59.099z
	 M104.311,156.734l-1.379-3.101c-0.392-0.881-1.423-1.277-2.304-0.885s-1.278,1.424-0.886,2.303l1.378,3.101
	c0.392,0.881,1.423,1.277,2.304,0.885C104.306,158.645,104.703,157.613,104.311,156.734z M109.136,167.581l-1.379-3.099
	c-0.392-0.881-1.423-1.277-2.304-0.885c-0.881,0.391-1.277,1.422-0.886,2.303l1.379,3.101c0.392,0.881,1.423,1.278,2.304,0.886
	S109.528,168.462,109.136,167.581z M113.961,178.43l-1.378-3.1c-0.392-0.882-1.424-1.276-2.305-0.886
	c-0.881,0.393-1.277,1.424-0.885,2.306l1.378,3.1c0.392,0.88,1.424,1.276,2.305,0.886
	C113.957,180.343,114.354,179.312,113.961,178.43z M118.787,189.279l-1.379-3.101c-0.392-0.881-1.424-1.278-2.304-0.886
	c-0.881,0.391-1.277,1.425-0.886,2.306l1.379,3.099c0.392,0.881,1.423,1.277,2.304,0.885
	C118.782,191.191,119.179,190.16,118.787,189.279z M89.835,124.189l-1.379-3.1c-0.392-0.882-1.424-1.278-2.304-0.886
	c-0.881,0.391-1.277,1.424-0.886,2.304l1.379,3.1c0.392,0.882,1.423,1.278,2.304,0.886C89.83,126.103,90.227,125.069,89.835,124.189
	z M80.184,102.492l-1.379-3.1c-0.392-0.88-1.423-1.277-2.304-0.886c-0.881,0.392-1.277,1.424-0.886,2.305l1.379,3.1
	c0.392,0.88,1.423,1.277,2.304,0.885C80.179,104.404,80.576,103.373,80.184,102.492z M85.009,113.341l-1.378-3.101
	c-0.392-0.88-1.423-1.276-2.305-0.886c-0.881,0.393-1.277,1.425-0.886,2.306l1.379,3.099c0.392,0.881,1.423,1.277,2.305,0.886
	C85.005,115.254,85.401,114.222,85.009,113.341z M99.485,145.886l-1.379-3.101c-0.392-0.879-1.423-1.275-2.304-0.885
	c-0.88,0.393-1.277,1.424-0.886,2.305l1.379,3.099c0.392,0.881,1.424,1.277,2.304,0.885
	C99.481,147.798,99.877,146.767,99.485,145.886z M94.66,135.036l-1.378-3.098c-0.392-0.881-1.424-1.278-2.304-0.888
	c-0.881,0.393-1.277,1.424-0.885,2.306l1.378,3.1c0.392,0.882,1.424,1.278,2.305,0.886C94.655,136.949,95.052,135.918,94.66,135.036
	z M353.012,120.307c-0.881-0.395-1.912,0-2.307,0.879l-1.385,3.099c-0.395,0.879,0,1.912,0.881,2.305
	c0.881,0.395,1.912,0,2.307-0.879l1.383-3.099C354.285,121.732,353.891,120.701,353.012,120.307z M367.559,87.792
	c-0.881-0.394-1.914,0-2.309,0.881l-1.385,3.096c-0.393,0.88,0.002,1.913,0.881,2.307c0.879,0.394,1.912,0,2.307-0.881l1.385-3.097
	C368.832,89.218,368.438,88.186,367.559,87.792z M343.314,141.982c-0.881-0.395-1.912,0-2.307,0.881l-1.385,3.097
	c-0.395,0.879,0,1.912,0.881,2.305c0.881,0.395,1.912,0,2.307-0.879l1.383-3.099C344.588,143.408,344.193,142.375,343.314,141.982z
	 M357.861,109.467c-0.881-0.393-1.914,0.002-2.309,0.882l-1.383,3.097c-0.395,0.881,0,1.912,0.879,2.307
	c0.881,0.393,1.912-0.002,2.307-0.881l1.385-3.097C359.135,110.894,358.74,109.861,357.861,109.467z M362.709,98.63
	c-0.881-0.394-1.912,0-2.307,0.88l-1.387,3.097c-0.393,0.879,0.002,1.912,0.883,2.306c0.881,0.394,1.912,0,2.307-0.881l1.383-3.097
	C363.982,100.056,363.588,99.024,362.709,98.63z M348.164,131.144c-0.881-0.393-1.914,0.002-2.309,0.881l-1.383,3.097
	c-0.395,0.881,0,1.912,0.879,2.307c0.881,0.393,1.912,0,2.307-0.881l1.385-3.097C349.438,132.569,349.043,131.538,348.164,131.144z
	 M328.77,174.494c-0.879-0.392-1.914,0.003-2.309,0.882l-1.383,3.096c-0.395,0.882,0,1.913,0.879,2.308
	c0.881,0.395,1.912,0,2.307-0.881l1.387-3.097C330.043,175.923,329.648,174.889,328.77,174.494z M323.92,185.333
	c-0.879-0.395-1.912,0-2.307,0.882l-1.385,3.096c-0.395,0.88,0,1.913,0.881,2.306c0.881,0.395,1.912,0,2.307-0.879l1.385-3.097
	C325.193,186.76,324.799,185.728,323.92,185.333z M338.467,152.821c-0.881-0.395-1.914,0-2.309,0.879l-1.385,3.097
	c-0.393,0.881,0.002,1.912,0.881,2.307c0.881,0.393,1.912,0,2.307-0.881l1.387-3.097
	C339.74,154.247,339.346,153.214,338.467,152.821z M333.617,163.658c-0.879-0.395-1.912,0-2.307,0.881l-1.385,3.096
	c-0.395,0.88,0,1.913,0.881,2.306c0.881,0.395,1.912,0,2.307-0.879l1.385-3.099C334.891,165.084,334.496,164.053,333.617,163.658z
	 M386.951,44.44c-0.879-0.394-1.912,0.001-2.307,0.881l-1.385,3.097c-0.393,0.88,0,1.913,0.881,2.306
	c0.879,0.394,1.912,0,2.307-0.881l1.385-3.096C388.227,45.867,387.832,44.834,386.951,44.44z M401.496,11.927
	c-0.879-0.394-1.912,0-2.305,0.88l-1.387,3.096c-0.395,0.88,0,1.913,0.883,2.307c0.879,0.394,1.912,0,2.305-0.88l1.385-3.096
	C402.771,13.353,402.377,12.32,401.496,11.927z M396.648,22.764c-0.879-0.394-1.914,0-2.305,0.881l-1.387,3.097
	c-0.395,0.88,0,1.913,0.881,2.306c0.879,0.394,1.912,0,2.305-0.88l1.387-3.097C397.924,24.191,397.529,23.158,396.648,22.764z
	 M406.346,1.089c-0.879-0.394-1.914,0-2.305,0.88l-1.387,3.097c-0.395,0.88,0,1.912,0.881,2.306c0.879,0.394,1.912,0,2.305-0.88
	l1.387-3.097C407.619,2.515,407.227,1.482,406.346,1.089z M391.799,33.603c-0.879-0.394-1.912,0-2.305,0.88l-1.387,3.097
	c-0.393,0.88,0,1.913,0.883,2.306c0.879,0.394,1.912,0,2.305-0.881l1.385-3.096C393.074,35.029,392.68,33.996,391.799,33.603z
	 M377.256,66.116c-0.881-0.394-1.916,0-2.309,0.881l-1.385,3.096c-0.393,0.88,0.002,1.913,0.881,2.306
	c0.879,0.394,1.912,0,2.305-0.88l1.387-3.097C378.529,67.542,378.135,66.51,377.256,66.116z M372.406,76.954
	c-0.881-0.394-1.912,0-2.307,0.881l-1.387,3.096c-0.393,0.88,0.002,1.913,0.883,2.307c0.879,0.394,1.912-0.001,2.307-0.881
	l1.383-3.097C373.68,78.38,373.285,77.348,372.406,76.954z M314.223,207.009c-0.58-0.261-1.227-0.171-1.713,0.171
	c-0.488-0.354-1.143-0.452-1.73-0.19c-0.883,0.393-1.279,1.424-0.887,2.305l0.926,2.081c0.004,0.008,0.01,0.015,0.014,0.022
	c0.143,0.462,0.471,0.863,0.945,1.077c0.881,0.395,1.912,0,2.307-0.881l1.02-2.277C315.496,208.436,315.104,207.403,314.223,207.009
	z M382.104,55.278c-0.881-0.394-1.912,0-2.307,0.88l-1.387,3.097c-0.393,0.88,0,1.913,0.883,2.307
	c0.879,0.394,1.912-0.001,2.307-0.881l1.383-3.096C383.377,56.705,382.982,55.672,382.104,55.278z M319.072,196.172
	c-0.879-0.395-1.914,0-2.309,0.88l-1.383,3.096c-0.395,0.882,0,1.913,0.879,2.308c0.881,0.393,1.912,0,2.307-0.882l1.387-3.096
	C320.346,197.599,319.953,196.564,319.072,196.172z M266.207,102.492l-1.377-3.1c-0.393-0.88-1.424-1.277-2.307-0.886
	c-0.881,0.392-1.277,1.424-0.885,2.305l1.379,3.1c0.393,0.88,1.424,1.277,2.305,0.885
	C266.203,104.404,266.598,103.373,266.207,102.492z M251.732,69.947l-1.381-3.1c-0.391-0.881-1.422-1.277-2.303-0.886
	c-0.881,0.392-1.277,1.423-0.885,2.305l1.377,3.099c0.393,0.881,1.424,1.278,2.305,0.886
	C251.725,71.859,252.121,70.828,251.732,69.947z M261.383,91.644l-1.381-3.099c-0.393-0.881-1.424-1.278-2.303-0.886
	c-0.881,0.392-1.277,1.423-0.887,2.304l1.379,3.1c0.391,0.881,1.426,1.277,2.305,0.885
	C261.377,93.556,261.773,92.524,261.383,91.644z M246.904,59.099l-1.377-3.1c-0.393-0.881-1.424-1.277-2.305-0.886
	c-0.881,0.392-1.279,1.424-0.887,2.305l1.381,3.1c0.391,0.881,1.422,1.277,2.303,0.885S247.297,59.98,246.904,59.099z
	 M256.557,80.795l-1.379-3.099c-0.393-0.881-1.424-1.278-2.305-0.886s-1.277,1.423-0.885,2.304l1.377,3.1
	c0.393,0.881,1.424,1.277,2.305,0.886C256.553,82.708,256.949,81.677,256.557,80.795z M242.08,48.251l-1.377-3.1
	c-0.393-0.88-1.424-1.277-2.307-0.885c-0.881,0.392-1.277,1.424-0.885,2.304l1.379,3.1c0.393,0.88,1.424,1.277,2.305,0.885
	C242.076,50.164,242.473,49.131,242.08,48.251z M227.604,15.706l-1.379-3.1c-0.391-0.881-1.422-1.277-2.303-0.886
	c-0.881,0.392-1.277,1.424-0.885,2.305l1.377,3.099c0.393,0.881,1.424,1.278,2.305,0.886
	C227.598,17.618,227.996,16.587,227.604,15.706z M232.43,26.554l-1.379-3.1c-0.393-0.881-1.424-1.277-2.305-0.885
	c-0.881,0.392-1.277,1.423-0.885,2.304l1.377,3.1c0.393,0.881,1.424,1.278,2.305,0.886C232.426,28.467,232.822,27.435,232.43,26.554
	z M237.256,37.402l-1.381-3.099c-0.393-0.881-1.424-1.278-2.303-0.886c-0.881,0.392-1.277,1.423-0.887,2.304l1.379,3.1
	c0.391,0.881,1.424,1.277,2.307,0.886C237.25,39.315,237.646,38.283,237.256,37.402z M222.777,4.858l-1.377-3.1
	c-0.393-0.881-1.424-1.277-2.303-0.885c-0.344,0.152-0.609,0.402-0.787,0.7c-0.1,0.119-0.189,0.248-0.256,0.396l-1.383,3.097
	c-0.395,0.88,0,1.912,0.879,2.306c0.838,0.374,1.805,0.031,2.238-0.76c0.477,0.638,1.344,0.888,2.104,0.55
	C222.773,6.771,223.17,5.739,222.777,4.858z M304.811,189.279l-1.381-3.101c-0.391-0.881-1.422-1.278-2.303-0.886
	c-0.881,0.391-1.277,1.425-0.885,2.306l1.377,3.099c0.393,0.881,1.424,1.277,2.307,0.885
	C304.807,191.191,305.203,190.16,304.811,189.279z M299.984,178.43l-1.379-3.1c-0.391-0.882-1.424-1.276-2.303-0.886
	c-0.881,0.393-1.277,1.424-0.887,2.306l1.379,3.1c0.391,0.88,1.424,1.276,2.303,0.886
	C299.98,180.343,300.377,179.312,299.984,178.43z M309.635,200.126l-1.377-3.099c-0.393-0.881-1.426-1.277-2.307-0.887
	c-0.881,0.393-1.275,1.424-0.885,2.305l1.381,3.101c0.391,0.881,1.422,1.277,2.303,0.885S310.027,201.007,309.635,200.126z
	 M295.158,167.581l-1.377-3.099c-0.393-0.881-1.424-1.277-2.305-0.885c-0.883,0.391-1.279,1.422-0.887,2.303l1.379,3.101
	c0.393,0.881,1.424,1.278,2.305,0.886S295.551,168.462,295.158,167.581z M275.859,124.189l-1.381-3.1
	c-0.391-0.882-1.424-1.278-2.303-0.886c-0.881,0.391-1.277,1.424-0.887,2.304l1.379,3.1c0.393,0.882,1.424,1.278,2.303,0.886
	C275.852,126.103,276.25,125.069,275.859,124.189z M290.334,156.734l-1.379-3.101c-0.391-0.881-1.422-1.277-2.305-0.885
	c-0.881,0.393-1.277,1.424-0.885,2.303l1.379,3.101c0.393,0.881,1.424,1.277,2.305,0.885
	C290.328,158.645,290.725,157.613,290.334,156.734z M280.684,135.036l-1.379-3.098c-0.393-0.881-1.424-1.278-2.305-0.888
	c-0.881,0.393-1.277,1.424-0.885,2.306l1.377,3.1c0.393,0.882,1.424,1.278,2.307,0.886
	C280.68,136.949,281.076,135.918,280.684,135.036z M271.031,113.341l-1.377-3.101c-0.393-0.88-1.424-1.276-2.305-0.886
	c-0.881,0.393-1.279,1.425-0.887,2.306l1.381,3.099c0.391,0.881,1.422,1.277,2.303,0.886
	C271.027,115.254,271.424,114.222,271.031,113.341z M285.508,145.886l-1.379-3.101c-0.391-0.879-1.424-1.275-2.305-0.885
	c-0.879,0.393-1.275,1.424-0.885,2.305l1.381,3.099c0.389,0.881,1.424,1.277,2.303,0.885
	C285.504,147.798,285.9,146.767,285.508,145.886z"/>
<g>
	<path fill="#A19B97" d="M76.994,103.911c0.392,0.88,1.423,1.277,2.304,0.885c0.881-0.392,1.277-1.424,0.886-2.304l-1.379-3.1
		c-0.392-0.88-1.423-1.277-2.304-0.886c-0.881,0.392-1.277,1.424-0.886,2.305L76.994,103.911z"/>
	<path fill="#A19B97" d="M90.977,131.051c-0.881,0.393-1.277,1.424-0.885,2.306l1.378,3.1c0.392,0.882,1.424,1.278,2.305,0.886
		c0.88-0.393,1.277-1.424,0.885-2.306l-1.378-3.098C92.89,131.058,91.857,130.66,90.977,131.051z"/>
	<path fill="#A19B97" d="M81.819,114.759c0.392,0.881,1.423,1.277,2.305,0.886c0.881-0.391,1.277-1.423,0.885-2.304l-1.378-3.101
		c-0.392-0.88-1.423-1.276-2.305-0.886c-0.881,0.393-1.277,1.425-0.886,2.306L81.819,114.759z"/>
	<path fill="#A19B97" d="M73.979,88.544c-0.392-0.881-1.423-1.278-2.304-0.886c-0.88,0.392-1.277,1.423-0.885,2.304l1.378,3.1
		c0.392,0.881,1.423,1.277,2.305,0.885c0.881-0.392,1.277-1.423,0.885-2.304L73.979,88.544z"/>
	<path fill="#A19B97" d="M98.106,142.785c-0.392-0.879-1.423-1.275-2.304-0.885c-0.88,0.393-1.277,1.424-0.886,2.305l1.379,3.099
		c0.075,0.168,0.178,0.312,0.294,0.442l1.865-4.178L98.106,142.785z"/>
	<path fill="#A19B97" d="M86.645,125.607c0.392,0.882,1.423,1.278,2.304,0.886c0.881-0.391,1.277-1.424,0.886-2.304l-1.379-3.1
		c-0.392-0.882-1.424-1.278-2.304-0.886c-0.881,0.391-1.277,1.424-0.886,2.304L86.645,125.607z"/>
	<path fill="#A19B97" d="M69.647,83.1c0.881-0.392,1.277-1.423,0.886-2.305l-1.379-3.099c-0.392-0.881-1.423-1.278-2.304-0.886
		s-1.277,1.423-0.885,2.304l1.378,3.1C67.735,83.096,68.767,83.492,69.647,83.1z"/>
	<path fill="#A19B97" d="M64.822,72.251c0.881-0.392,1.277-1.423,0.885-2.304l-0.145-0.325l-1.231,2.758
		C64.497,72.359,64.662,72.323,64.822,72.251z"/>
</g>
<linearGradient id="SVGID_3_" gradientUnits="userSpaceOnUse" x1="172.1948" y1="41.8848" x2="172.1948" y2="213.5688">
	<stop  offset="0" style="stop-color:#65625C"/>
	<stop  offset="1" style="stop-color:#272F2B"/>
</linearGradient>
<polygon fill="url(#SVGID_3_)" points="250.945,212.496 185.041,212.496 93.445,7.173 159.35,7.173 "/>
</svg>
